<svg width="26" height="25" viewBox="0 0 26 25" fill="none" xmlns="http://www.w3.org/2000/svg">
<path d="M20.5501 7.30011C20.7756 5.9948 19.7687 4.80197 18.4441 4.80515L7.52029 4.83132C6.19565 4.83449 5.1945 6.03212 5.42626 7.33634" stroke="#272829" stroke-width="1.5"/>
<path d="M18.4825 4.80508C18.5102 4.54594 18.5241 4.41633 18.5241 4.30933C18.5238 3.2857 17.7507 2.42747 16.7327 2.32068C16.6263 2.30952 16.496 2.30983 16.2353 2.31046L9.71755 2.32607C9.4569 2.3267 9.32658 2.32701 9.22021 2.33868C8.20269 2.45034 7.43372 3.31227 7.4384 4.33588C7.43889 4.44289 7.45339 4.5724 7.48238 4.83143" stroke="#272829" stroke-width="1.5"/>
<path d="M16.0146 18.3113L10.0146 18.3257" stroke="#272829" stroke-width="1.5" stroke-linecap="round"/>
<path d="M3.38806 14.1343C2.93446 10.9719 2.70766 9.39062 3.65305 8.36452C4.59844 7.33843 6.28585 7.33439 9.66066 7.3263L16.3158 7.31036C19.6907 7.30227 21.3781 7.29823 22.3284 8.31978C23.2787 9.34133 23.0594 10.9236 22.621 14.0883L22.2052 17.0893C21.8614 19.571 21.6895 20.8118 20.794 21.5568C19.8986 22.3018 18.5754 22.305 15.9288 22.3113L10.1196 22.3252C7.47301 22.3316 6.14973 22.3348 5.25077 21.5941C4.3518 20.8534 4.17394 19.6133 3.81822 17.1333L3.38806 14.1343Z" stroke="#272829" stroke-width="1.5"/>
</svg>
