<svg width="26" height="25" viewBox="0 0 26 25" fill="none" xmlns="http://www.w3.org/2000/svg">
<path d="M20.5501 7.29523C20.7756 5.98991 19.7687 4.79709 18.4441 4.80026L7.52029 4.82643C6.19565 4.82961 5.1945 6.02724 5.42626 7.33146" stroke="white" stroke-width="1.5"/>
<path d="M18.4825 4.8002C18.5102 4.54105 18.5241 4.41145 18.5241 4.30444C18.5238 3.28082 17.7507 2.42259 16.7327 2.3158C16.6263 2.30464 16.496 2.30495 16.2353 2.30557L9.71755 2.32119C9.4569 2.32181 9.32658 2.32213 9.22021 2.3338C8.20269 2.44546 7.43372 3.30738 7.4384 4.331C7.43889 4.43801 7.45339 4.56752 7.48238 4.82655" stroke="white" stroke-width="1.5"/>
<path d="M16.0146 18.3064L10.0146 18.3208" stroke="white" stroke-width="1.5" stroke-linecap="round"/>
<path d="M3.38806 14.1294C2.93446 10.967 2.70766 9.38573 3.65305 8.35964C4.59844 7.33354 6.28585 7.3295 9.66066 7.32142L16.3158 7.30547C19.6907 7.29739 21.3781 7.29335 22.3284 8.3149C23.2787 9.33645 23.0594 10.9188 22.621 14.0834L22.2052 17.0844C21.8614 19.5661 21.6895 20.8069 20.794 21.5519C19.8986 22.2969 18.5754 22.3001 15.9288 22.3064L10.1196 22.3204C7.47301 22.3267 6.14973 22.3299 5.25077 21.5892C4.3518 20.8485 4.17394 19.6085 3.81822 17.1284L3.38806 14.1294Z" stroke="white" stroke-width="1.5"/>
</svg>
