<svg width="23" height="23" viewBox="0 0 23 23" fill="none" xmlns="http://www.w3.org/2000/svg">
<path d="M16.083 13.875C18.0768 13.8639 19.1565 13.7755 19.8609 13.0711C20.6663 12.2657 20.6663 10.9693 20.6663 8.37659V7.45993C20.6663 4.8672 20.6663 3.57084 19.8609 2.76538C19.0554 1.95993 17.7591 1.95993 15.1663 1.95993H7.83301C5.24028 1.95993 3.94392 1.95993 3.13846 2.76538C2.33301 3.57084 2.33301 4.8672 2.33301 7.45993L2.33301 8.37659C2.33301 10.9693 2.33301 12.2657 3.13846 13.0711C3.84282 13.7755 4.92257 13.8639 6.91634 13.875" stroke="white" stroke-width="1.5" stroke-linecap="round"/>
<path d="M11.5 20.2935L11.5 8.37679M11.5 8.37679L8.75 11.5851M11.5 8.37679L14.25 11.5851" stroke="white" stroke-width="1.5" stroke-linecap="round" stroke-linejoin="round"/>
</svg>
