<svg width="20" height="20" viewBox="0 0 20 20" fill="none" xmlns="http://www.w3.org/2000/svg">
<path d="M2.8291 4.79199C2.8291 4.1621 3.07932 3.55801 3.52472 3.11261C3.97012 2.66721 4.57421 2.41699 5.2041 2.41699H8.37077V4.00033H5.2041C4.99414 4.00033 4.79278 4.08373 4.64431 4.2322C4.49584 4.38067 4.41243 4.58203 4.41243 4.79199V7.95866H2.8291V4.79199ZM14.7041 4.00033H11.5374V2.41699H14.7041C15.334 2.41699 15.9381 2.66721 16.3835 3.11261C16.8289 3.55801 17.0791 4.1621 17.0791 4.79199V7.95866H15.4958V4.79199C15.4958 4.58203 15.4124 4.38067 15.2639 4.2322C15.1154 4.08373 14.9141 4.00033 14.7041 4.00033ZM4.41243 11.1253V14.292C4.41243 14.502 4.49584 14.7033 4.64431 14.8518C4.79278 15.0003 4.99414 15.0837 5.2041 15.0837H8.37077V16.667H5.2041C4.57421 16.667 3.97012 16.4168 3.52472 15.9714C3.07932 15.526 2.8291 14.9219 2.8291 14.292V11.1253H4.41243ZM15.4958 14.292V11.1253H17.0791V14.292C17.0791 14.9219 16.8289 15.526 16.3835 15.9714C15.9381 16.4168 15.334 16.667 14.7041 16.667H11.5374V15.0837H14.7041C14.9141 15.0837 15.1154 15.0003 15.2639 14.8518C15.4124 14.7033 15.4958 14.502 15.4958 14.292Z" fill="#272829"/>
</svg>
