<svg width="20" height="20" viewBox="0 0 20 20" fill="none" xmlns="http://www.w3.org/2000/svg">
<path d="M2.91699 3.98517C2.91699 2.55733 4.50196 1.60918 5.82392 2.32806L16.5005 8.13398C17.8336 8.85888 17.8336 10.7233 16.5006 11.4482L16.4587 11.471V12.8939L17.0977 12.5463C19.3012 11.3481 19.3012 8.23409 17.0977 7.03584L6.42108 1.22992C4.30594 0.0797143 1.66699 1.56433 1.66699 3.98517V15.597C1.66699 18.0179 4.30595 19.5025 6.42109 18.3523L8.12533 17.4255V16.0026L5.82393 17.2541C4.50196 17.973 2.91699 17.0249 2.91699 15.597L2.91699 3.98517Z" fill="url(#paint0_linear_936_1618)"/>
<path fill-rule="evenodd" clip-rule="evenodd" d="M12.7087 11.666C13.0538 11.666 13.3337 11.9458 13.3337 12.291V14.5827H15.6253C15.9705 14.5827 16.2503 14.8625 16.2503 15.2077C16.2503 15.5529 15.9705 15.8327 15.6253 15.8327H13.3337V18.1243C13.3337 18.4695 13.0538 18.7493 12.7087 18.7493C12.3635 18.7493 12.0837 18.4695 12.0837 18.1243V15.8327H9.79199C9.44681 15.8327 9.16699 15.5529 9.16699 15.2077C9.16699 14.8625 9.44681 14.5827 9.79199 14.5827H12.0837V12.291C12.0837 11.9458 12.3635 11.666 12.7087 11.666Z" fill="url(#paint1_linear_936_1618)"/>
<defs>
<linearGradient id="paint0_linear_936_1618" x1="1.66699" y1="0.833496" x2="19.5626" y2="17.8975" gradientUnits="userSpaceOnUse">
<stop stop-color="#2FA5F6"/>
<stop offset="1" stop-color="#4318FF"/>
</linearGradient>
<linearGradient id="paint1_linear_936_1618" x1="1.66699" y1="0.833496" x2="19.5626" y2="17.8975" gradientUnits="userSpaceOnUse">
<stop stop-color="#2FA5F6"/>
<stop offset="1" stop-color="#4318FF"/>
</linearGradient>
</defs>
</svg>
