<svg width="26" height="25" viewBox="0 0 26 25" fill="none" xmlns="http://www.w3.org/2000/svg">
<path d="M4.98579 6.1914L5.01694 19.1914C5.02091 20.8482 6.36727 22.1881 8.02412 22.1842L18.0241 22.1602C19.6809 22.1562 21.0209 20.8099 21.0169 19.153L20.9929 9.15306C20.989 7.49622 19.6426 6.15629 17.9858 6.16026L4.98579 6.1914ZM4.98579 6.1914L4.9834 5.19141" stroke="white" stroke-width="1.5"/>
<path d="M18.9863 6.15788L18.9881 6.90788L19.7381 6.90608L19.7363 6.15608L18.9863 6.15788ZM16.6947 2.48948L16.5869 1.74727L16.6947 2.48948ZM5.90088 4.05785L5.79303 3.31564L5.79303 3.31564L5.90088 4.05785ZM6.05925 6.93885L18.9881 6.90788L18.9846 5.40788L6.05566 5.43885L6.05925 6.93885ZM19.7363 6.15608L19.7323 4.4621L18.2323 4.4657L18.2364 6.15967L19.7363 6.15608ZM16.5869 1.74727L5.79303 3.31564L6.00872 4.80005L16.8026 3.23168L16.5869 1.74727ZM5.79303 3.31564C4.89619 3.44596 4.23165 4.2159 4.23383 5.12215L5.73382 5.11855C5.73344 4.95877 5.8506 4.82303 6.00872 4.80005L5.79303 3.31564ZM19.7323 4.4621C19.7283 2.7886 18.243 1.50663 16.5869 1.74727L16.8026 3.23168C17.5553 3.1223 18.2305 3.70501 18.2323 4.4657L19.7323 4.4621ZM6.05566 5.43885C5.87834 5.43928 5.73425 5.29588 5.73382 5.11855L4.23383 5.12215C4.23624 6.12789 5.05351 6.94126 6.05925 6.93885L6.05566 5.43885Z" fill="white"/>
<path d="M9 12.1821L17 12.163" stroke="white" stroke-width="1.5" stroke-linecap="round"/>
<path d="M9.00879 15.6821L14.5088 15.669" stroke="white" stroke-width="1.5" stroke-linecap="round"/>
</svg>
