<svg width="24" height="25" viewBox="0 0 24 25" fill="none" xmlns="http://www.w3.org/2000/svg">
<path d="M11.4343 0.952851C10.8995 0.953778 10.3628 0.956828 9.82506 0.959885C8.34905 0.968274 6.86438 0.976712 5.38426 0.94145L11.4343 0.952851ZM11.4343 0.952851L11.4362 0.956955H11.7551C12.392 0.956955 13.0324 0.961666 13.675 0.966392C15.1371 0.977147 16.61 0.98798 18.0761 0.94356L11.4343 0.952851ZM21.5988 6.59622C21.5616 8.26934 21.5727 9.94373 21.5837 11.6184C21.5872 12.1495 21.5907 12.6806 21.5927 13.2118L21.5988 6.59622ZM21.5988 6.59622C21.6539 4.11154 20.0698 2.27876 17.6528 2.26559M21.5988 6.59622L2.13188 4.62515M22.5221 13.9433L22.5223 13.9433C22.574 13.9444 22.6556 13.9216 22.7439 13.8013C22.8343 13.6781 22.9113 13.472 22.9136 13.1987C22.9149 13.0524 22.9162 12.9062 22.9175 12.7602C22.9271 11.6845 22.9367 10.617 22.9117 9.55131C22.9013 9.10454 22.9017 8.67023 22.9021 8.24308C22.9029 7.28158 22.9038 6.35637 22.781 5.40704C22.6225 4.18443 21.9684 3.04512 21.0744 2.2184C20.1769 1.38854 19.0825 0.913359 18.0762 0.943556L22.5221 13.9433ZM22.5221 13.9433C22.3955 13.9405 22.0943 13.7633 22.0927 13.2103L22.0927 13.2099M22.5221 13.9433L22.0927 13.2099M22.0927 13.2099C22.0907 12.6755 22.0872 12.1422 22.0837 11.6099C22.0726 9.93685 22.0617 8.27253 22.0987 6.60733L22.0987 6.6073M22.0927 13.2099L22.0987 6.6073M22.0987 6.6073C22.1287 5.25616 21.7126 4.04795 20.925 3.17017C20.1341 2.28869 18.9968 1.77298 17.6558 1.7656L17.6528 2.26559M22.0987 6.6073L17.6555 1.7656M5.70028 2.27217C4.11206 2.28754 2.85659 3.03382 2.13188 4.62515M5.70028 2.27217C9.68308 2.23267 13.6679 2.24145 17.6528 2.26559M5.70028 2.27217L5.69538 1.7722C5.6954 1.7722 5.69542 1.7722 5.69544 1.7722C9.68196 1.73265 13.6697 1.74145 17.6555 1.7656M5.70028 2.27217L17.6555 1.7656M2.13188 4.62515C1.87467 5.19145 1.77872 5.80604 1.77872 6.4294L2.13188 4.62515ZM17.6528 2.26559L17.6555 1.7656M0.525135 18.4897C0.500643 14.3904 0.488413 10.291 0.525124 6.19463L0.525125 6.19455C0.551536 3.19049 3.00804 0.885192 5.3842 0.941449L0.525135 18.4897Z" stroke="#272829"/>
<path d="M9.88798 8.73712H9.88954L9.90598 8.73717C10.0634 8.73765 10.2246 8.73813 10.3568 8.75493C10.4947 8.77245 10.7059 8.81832 10.8708 8.99669C11.0287 9.16741 11.0652 9.37605 11.0795 9.51C11.0943 9.64751 11.0943 9.81754 11.0943 9.99369V10.0028C11.095 10.9085 11.095 11.8142 11.095 12.7196C11.095 14.5299 11.095 16.3396 11.1004 18.149L9.88798 8.73712ZM9.88798 8.73712H9.88161H9.87525H9.86889H9.86252H9.85616H9.8498H9.84343H9.83707H9.83071H9.82434H9.81798H9.81162H9.80525H9.79889H9.79253H9.78617H9.7798H9.77344H9.76708H9.76072H9.75435H9.74799H9.74163H9.73526H9.7289H9.72254H9.71618H9.70982H9.70345H9.69709H9.69073H9.68437H9.678H9.67164H9.66528H9.65892H9.65256H9.6462H9.63983H9.63347H9.62711H9.62075H9.61439H9.60803H9.60166H9.5953H9.58894H9.58258H9.57622H9.56986H9.56349H9.55713H9.55077H9.54441H9.53805H9.53169H9.52533H9.51897H9.51261H9.50624H9.49988H9.49352H9.48716H9.4808H9.47444H9.46808H9.46172H9.45536H9.449H9.44264H9.43628H9.42991H9.42355H9.41719H9.41083H9.40447H9.39811H9.39175H9.38539H9.37903H9.37267H9.36631H9.35995H9.35359H9.34723H9.34087H9.33451H9.32815H9.32179H9.31543H9.30907H9.30271H9.29635H9.28999H9.28363H9.27727H9.27091H9.26455H9.25819H9.25183H9.24547H9.23911H9.23275H9.22639H9.22003H9.21367H9.20731H9.20095H9.19459H9.18824H9.18188H9.17552H9.16916H9.1628H9.15644H9.15008H9.14372H9.13736H9.131H9.12464H9.11828H9.11192H9.10556H9.09921H9.09285H9.08649H9.08013H9.07377H9.06741H9.06105H9.05469H9.04833H9.04198H9.03562H9.02926H9.0229H9.01654H9.01018H9.00382H8.99746H8.9911H8.98475H8.97839H8.97203H8.96567H8.95931H8.95295H8.94659H8.94024H8.93388H8.92752H8.92116H8.9148H8.90844H8.90208H8.89573H8.88937H8.88301H8.87665H8.87029H8.86393H8.85758H8.85122H8.84486H8.8385H8.83214H8.82578H8.81943H8.81307H8.80671H8.80035H8.79399H8.78764H8.78128H8.77492H8.76856H8.7622H8.75585H8.74949H8.74313H8.73677H8.73041H8.72406H8.7177H8.71134H8.70498H8.69862H8.69227H8.68591H8.67955H8.67319H8.66683H8.66048H8.65412H8.64776H8.6414H8.63505H8.62869H8.62233H8.61597H8.60961H8.60326H8.5969H8.59054H8.58418H8.57783H8.57147H8.56511H8.55875H8.55239H8.54604H8.53968H8.53332H8.52696H8.52061H8.51425H8.50789H8.50153H8.49518H8.48882H8.48246H8.4761H8.46975H8.46339H8.45703H8.45067H8.44431H8.43796H8.4316H8.42524H8.41888H8.41253H8.40617H8.39981H8.39345H8.3871H8.38074H8.37438H8.36802H8.36167H8.35531H8.34895H8.34259H8.33624H8.32988H8.32352H8.31716H8.31081H8.30445H8.29809H8.29173H8.28538H8.27902H8.27266H8.2663H8.25995H8.25359H8.24723H8.24087H8.23452H8.22816H8.2218H8.21544H8.20909H8.20273H8.19637H8.19001H8.18366H8.1773H8.17094H8.16458H8.15823H8.15187H8.14551H8.13915H8.1328H8.12644H8.12008H8.11372H8.10737H8.10101H8.09465H8.08829H8.08194H8.07558H8.06922H8.06286H8.05651H8.05015H8.04379H8.03743H8.03108H8.02472H8.01836H8.012H8.00565H7.99929H7.99293H7.98657H7.98021H7.97386H7.9675H7.96114H7.95478H7.94843H7.94207H7.93571H7.92935H7.923H7.91664H7.91028H7.90392H7.89756H7.89121H7.88485H7.87849H7.87213H7.86577H7.85942H7.85306H7.8467H7.84034H7.83399H7.82763H7.82127H7.81491H7.80855H7.8022H7.79584H7.78948H7.78312H7.77676H7.77041H7.76405H7.75769H7.75133H7.74497H7.73862H7.73226H7.7259H7.71954H7.71318H7.70682H7.70047H7.69411H7.68775H7.68139H7.67503H7.66868H7.66232H7.65596H7.6496H7.64324H7.63688H7.63053H7.62417H7.61781H7.61145H7.60509H7.59873H7.59237H7.58602H7.57966H7.5733H7.56694H7.56058H7.55422H7.54786H7.54151H7.53515H7.52879H7.52243H7.51607H7.50971H7.50335H7.49699H7.49064H7.48428H7.47792H7.47156H7.4652H7.45884H7.45248H7.44612H7.43976H7.43341H7.42705H7.42069H7.41433H7.40797H7.40161H7.39525H7.38889H7.38253H7.37617H7.36981H7.36346H7.3571H7.35074H7.34438H7.33802H7.33166H7.3253H7.31894H7.31258H7.30622H7.29986H7.2935H7.28714H7.28078H7.27442H7.26806H7.2617H7.25534H7.24898H7.24262H7.23626H7.2299H7.22354H7.21718H7.21082H7.20446H7.1981H7.19174H7.18538H7.17902H7.17266H7.1663H7.15994H7.15358H7.14722H7.14086H7.1345H7.12814H7.12178H7.11542H7.10906H7.1027H7.09634H7.08998H7.08362H7.07726H7.0709H7.06454H7.05818H7.05181H7.04545H7.03909H7.03273H7.02637H7.02001H7.01365H7.00729H7.00093H6.99457H6.9882H6.98184H6.97548H6.96912H6.96276H6.9564H6.95004H6.94368H6.93731H6.93095H6.92459H6.91823H6.91187H6.90551H6.89915H6.89278H6.88642H6.88006H6.8737H6.86734H6.86097H6.85461H6.84825H6.84189H6.83553H6.82916H6.8228H6.81644H6.81008H6.80372H6.79735H6.79099H6.78463H6.77827H6.7719H6.76554H6.75918H6.75282H6.74645H6.74009H6.73373H6.72737H6.721H6.71464H6.70828H6.70191H6.69555H6.68919H6.68282H6.67646H6.6701H6.66374H6.65737H6.65101H6.64465H6.63828H6.6327C6.34299 8.73614 6.16766 8.66328 6.07449 8.58839C5.99295 8.52286 5.93778 8.42837 5.9356 8.27101L5.9356 8.27069M9.88798 8.73712L5.9356 8.27069M5.9356 8.27069C5.93261 8.06457 6.10261 7.78412 6.62613 7.77921C7.77392 7.76983 8.9205 7.77161 10.0699 7.7734C10.5306 7.77412 10.9918 7.77484 11.4537 7.77484H11.9537M5.9356 8.27069L11.9537 7.77484M11.9537 7.77484V7.77264M11.9537 7.77484V7.77264M11.9537 7.77264H11.9617H11.9709H11.9802H11.9894H11.9986H12.0079H12.0171H12.0263H12.0356H12.0448H12.0541H12.0633H12.0725H12.0818H12.091H12.1002H12.1095H12.1187H12.128H12.1372H12.1464H12.1557H12.1649H12.1741H12.1834H12.1926H12.2018H12.2111H12.2203H12.2296H12.2388H12.248H12.2573H12.2665H12.2757H12.285H12.2942H12.3035H12.3127H12.3219H12.3312H12.3404H12.3497H12.3589H12.3681H12.3774H12.3866H12.3958H12.4051H12.4143H12.4236H12.4328H12.442H12.4513H12.4605H12.4697H12.479H12.4882H12.4975H12.5067H12.5159H12.5252H12.5344H12.5437H12.5529H12.5621H12.5714H12.5806H12.5898H12.5991H12.6083H12.6176H12.6268H12.636H12.6453H12.6545H12.6638H12.673H12.6822H12.6915H12.7007H12.7099H12.7192H12.7284H12.7377H12.7469H12.7561H12.7654H12.7746H12.7839H12.7931H12.8023H12.8116H12.8208H12.8301H12.8393H12.8485H12.8578H12.867H12.8763H12.8855H12.8947H12.904H12.9132H12.9224H12.9317H12.9409H12.9502H12.9594H12.9686H12.9779H12.9871H12.9964H13.0056H13.0148H13.0241H13.0333H13.0426H13.0518H13.061H13.0703H13.0795H13.0888H13.098H13.1072H13.1165H13.1257H13.135H13.1442H13.1534H13.1627H13.1719H13.1812H13.1904H13.1996H13.2089H13.2181H13.2274H13.2366H13.2458H13.2551H13.2643H13.2736H13.2828H13.292H13.3013H13.3105H13.3198H13.329H13.3382H13.3475H13.3567H13.366H13.3752H13.3844H13.3937H13.4029H13.4122H13.4214H13.4306H13.4399H13.4491H13.4584H13.4676H13.4768H13.4861H13.4953H13.5046H13.5138H13.523H13.5323H13.5415H13.5508H13.56H13.5692H13.5785H13.5877H13.597H13.6062H13.6154H13.6247H13.6339H13.6432H13.6524H13.6616H13.6709H13.6801H13.6894H13.6986H13.7078H13.7171H13.7263H13.7356H13.7448H13.754H13.7633H13.7725H13.7818H13.791H13.8002H13.8095H13.8187H13.828H13.8372H13.8464H13.8557H13.8649H13.8742H13.8834H13.8926H13.9019H13.9111H13.9204H13.9296H13.9388H13.9481H13.9573H13.9666H13.9758H13.985H13.9943H14.0035H14.0128H14.022H14.0312H14.0405H14.0497H14.059H14.0682H14.0774H14.0867H14.0959H14.1052H14.1144H14.1236H14.1329H14.1421H14.1514H14.1606H14.1698H14.1791H14.1883H14.1976H14.2068H14.216H14.2253H14.2345H14.2438H14.253H14.2622H14.2715H14.2807H14.29H14.2992H14.3084H14.3177H14.3269H14.3362H14.3454H14.3546H14.3639H14.3731H14.3824H14.3916H14.4008H14.4101H14.4193H14.4286H14.4378H14.447H14.4563H14.4655H14.4748H14.484H14.4932H14.5025H14.5117H14.521H14.5302H14.5394H14.5487H14.5579H14.5672H14.5764H14.5856H14.5949H14.6041H14.6134H14.6226H14.6318H14.6411H14.6503H14.6596H14.6688H14.678H14.6873H14.6965H14.7058H14.715H14.7242H14.7335H14.7427H14.7519H14.7612H14.7704H14.7797H14.7889H14.7981H14.8074H14.8166H14.8259H14.8351H14.8443H14.8536H14.8628H14.8721H14.8813H14.8905H14.8998H14.909H14.9183H14.9275H14.9367H14.946H14.9552H14.9644H14.9737H14.9829H14.9922H15.0014H15.0106H15.0199H15.0291H15.0384H15.0476H15.0568H15.0661H15.0753H15.0845H15.0938H15.103H15.1123H15.1215H15.1307H15.14H15.1492H15.1585H15.1677H15.1769H15.1862H15.1954H15.2046H15.2139H15.2231H15.2324H15.2416H15.2508H15.2601H15.2693H15.2786H15.2878H15.297H15.3063H15.3155H15.3247H15.334H15.3432H15.3525H15.3617H15.3709H15.3802H15.3894H15.3986H15.4079H15.4171H15.4264H15.4356H15.4448H15.4541H15.4633H15.4725H15.4818H15.491H15.5003H15.5095H15.5187H15.528H15.5372H15.5464H15.5557H15.5649H15.5741H15.5834H15.5926H15.6019H15.6111H15.6203H15.6296H15.6388H15.648H15.6573H15.6665H15.6758H15.685H15.6942H15.7035H15.7127H15.7219H15.7312H15.7404H15.7496H15.7589H15.7681H15.7774H15.7866H15.7958H15.8051H15.8143H15.8235H15.8328H15.842H15.8512H15.8605H15.8697H15.8789H15.8882H15.8974H15.9067H15.9159H15.9251H15.9344H15.9436H15.9528H15.9621H15.9713H15.9805H15.9898H15.999H16.0082H16.0175H16.0267H16.0359H16.0452H16.0544H16.0637H16.0729H16.0821H16.0914H16.1006H16.1098H16.1191H16.1283H16.1375H16.1468H16.156H16.1652H16.1745H16.1837C16.5354 7.77264 16.6713 7.80655 16.7711 7.91184C16.8719 8.01937 16.9305 8.10274 16.9589 8.17188C16.9813 8.22629 16.9866 8.27316 16.9656 8.33886C16.9144 8.49511 16.8457 8.58606 16.7816 8.63789C16.7209 8.68692 16.6377 8.72311 16.511 8.72628C15.9438 8.73853 15.3786 8.73781 14.8066 8.73708C14.5659 8.73677 14.3241 8.73646 14.0803 8.73712C14.0801 8.73712 14.0799 8.73712 14.0797 8.73712L14.081 9.23712M11.9537 7.77264L11.8234 9.8758C11.8212 9.61777 11.8525 9.28636 12.0729 9.03486C12.3168 8.75664 12.661 8.71429 12.9455 8.7339M14.081 9.23712C13.9592 9.23712 13.8372 9.23926 13.7151 9.24141C13.4466 9.24612 13.178 9.25084 12.9113 9.23273M14.081 9.23712C14.3206 9.23647 14.5602 9.23678 14.7997 9.23708C15.3746 9.23781 15.9491 9.23854 16.5226 9.22615L14.081 9.23712ZM12.9113 9.23273L12.9458 8.73392C12.9457 8.73391 12.9456 8.73391 12.9455 8.7339M12.9113 9.23273L12.9452 8.73388C12.9453 8.73389 12.9454 8.73389 12.9455 8.7339M12.9113 9.23273L12.9455 8.7339M11.8223 18.1512C11.799 18.5289 11.542 18.6667 11.4352 18.6612C11.311 18.6546 11.1019 18.5309 11.1004 18.1493L11.8223 18.1512Z" stroke="#272829"/>
<path d="M20.9882 17.0419C20.9567 17.0441 20.9368 17.0492 20.9255 17.0531C20.914 17.057 20.9096 17.0604 20.908 17.0618C20.9063 17.0631 20.9009 17.0677 20.8931 17.0809C20.8848 17.0949 20.8729 17.1202 20.8619 17.1622L20.8617 17.1631C20.8297 17.2847 20.7983 17.394 20.769 17.4964C20.7062 17.7155 20.6526 17.9025 20.6214 18.1092L20.6213 18.1103C20.5667 18.4667 20.4358 18.7782 20.2116 19.0281C19.9889 19.2762 19.7048 19.4295 19.3995 19.5224C19.0614 19.6263 18.7305 19.7335 18.4033 19.8507L18.2346 19.3801M20.9882 17.0419L18.3692 19.9035C18.3688 19.8821 18.3713 19.8703 18.3725 19.8658C18.3763 19.8631 18.386 19.857 18.4047 19.8503L18.2346 19.3801M20.9882 17.0419C20.9923 17.0523 20.9969 17.0663 21.0015 17.0846C21.0176 17.1492 21.0335 17.2128 21.0493 17.2756C21.1306 17.5995 21.2068 17.9031 21.2617 18.2137L21.2618 18.2144C21.3125 18.4992 21.4131 18.7752 21.6029 19.0055C21.7973 19.2414 22.0555 19.3933 22.3571 19.4744L22.3578 19.4746C22.5924 19.5373 22.8113 19.6166 23.0523 19.704C23.159 19.7426 23.27 19.7829 23.3887 19.8239C23.4665 19.851 23.4908 19.8765 23.4939 19.8802C23.4942 19.8806 23.4943 19.8806 23.4943 19.8807C23.4944 19.8808 23.4944 19.8809 23.4945 19.8814C23.495 19.8829 23.4987 19.8945 23.4978 19.9214L23.4978 19.9229C23.4968 19.9543 23.4916 19.9666 23.4913 19.9674L23.4912 19.9674C23.491 19.9681 23.491 19.9678 23.4915 19.9671C23.4917 19.9668 23.4918 19.9667 23.4917 19.9668C23.4916 19.9669 23.4913 19.9672 23.4907 19.9679C23.4835 19.9748 23.4488 20.0013 23.3528 20.0251L20.9882 17.0419ZM18.2346 19.3801C18.004 19.4635 17.8651 19.6434 17.8692 19.9112L19.2533 19.0442C18.9103 19.1496 18.5715 19.2593 18.2346 19.3801ZM21.3075 21.6196L21.3075 21.6195C21.3674 21.2527 21.462 20.8956 21.7121 20.622C21.9689 20.3411 22.3158 20.2265 22.6784 20.1559L21.3075 21.6196ZM21.3075 21.6196C21.2682 21.8604 21.2209 22.1009 21.1716 22.3508L21.1709 22.3546C21.1224 22.6003 21.0722 22.8552 21.0301 23.1132C21.0184 23.1821 21.0045 23.2348 20.99 23.2736C20.982 23.295 20.9749 23.3095 20.9696 23.3189M21.3075 21.6196L20.9696 23.3189M20.8628 23.0531L20.863 23.0545C20.8763 23.1234 20.8911 23.1805 20.9076 23.2266C20.9241 23.2731 20.9393 23.2998 20.949 23.3135C20.9503 23.3152 20.9514 23.3167 20.9523 23.3178L20.8628 23.0531ZM20.8628 23.0531C20.7884 22.6717 20.7212 22.289 20.6531 21.9007M20.8628 23.0531L20.6531 21.9007M20.9696 23.3189C20.9673 23.3189 20.9647 23.3188 20.9619 23.3187L20.9696 23.3189ZM19.1198 20.1362L19.1199 20.1363C19.5091 20.2034 19.8804 20.3148 20.1588 20.6043C20.4315 20.8879 20.5417 21.2677 20.6133 21.6748L19.1198 20.1362ZM19.1198 20.1362C18.8683 20.0929 18.6297 20.039 18.4045 19.9642M19.1198 20.1362L18.4045 19.9642M20.6531 21.9007C20.6399 21.8257 20.6267 21.7504 20.6133 21.6749L20.6531 21.9007ZM18.4045 19.9642C18.3907 19.9594 18.3833 19.9549 18.3801 19.9526C18.3785 19.9514 18.3776 19.9507 18.3773 19.9504L18.3771 19.9501L18.3771 19.9501L18.377 19.95L18.3769 19.9499L18.3765 19.9491C18.3761 19.9484 18.3753 19.9467 18.3744 19.9437C18.3726 19.9379 18.3695 19.9252 18.3692 19.9036L18.4045 19.9642Z" stroke="#272829"/>
</svg>
