<svg width="25" height="25" viewBox="0 0 25 25" fill="none" xmlns="http://www.w3.org/2000/svg">
<path d="M14.7525 16.2752C14.9425 16.2752 15.1325 16.2052 15.2825 16.0552C15.5725 15.7652 15.5725 15.2852 15.2825 14.9952L13.0325 12.7452V7.0752C13.0325 6.6652 12.6925 6.3252 12.2825 6.3252C11.8725 6.3252 11.5325 6.6652 11.5325 7.0752V13.0552C11.5325 13.2552 11.6125 13.4452 11.7525 13.5852L14.2225 16.0552C14.3725 16.2052 14.5625 16.2752 14.7525 16.2752Z" fill="#272829"/>
<path d="M4.5 19.0752H8.5C8.91 19.0752 9.25 18.7352 9.25 18.3252C9.25 17.9152 8.91 17.5752 8.5 17.5752H4.5C4.09 17.5752 3.75 17.9152 3.75 18.3252C3.75 18.7352 4.09 19.0752 4.5 19.0752Z" fill="#272829"/>
<path d="M6.5 21.0752C6.91 21.0752 7.25 20.7352 7.25 20.3252V16.3252C7.25 15.9152 6.91 15.5752 6.5 15.5752C6.09 15.5752 5.75 15.9152 5.75 16.3252V20.3252C5.75 20.7352 6.09 21.0752 6.5 21.0752Z" fill="#272829"/>
<path d="M12.5 22.3252C18.01 22.3252 22.5 17.8352 22.5 12.3252C22.5 6.8152 18.01 2.3252 12.5 2.3252C6.99 2.3252 2.5 6.8152 2.5 12.3252C2.5 13.4852 2.69 14.6052 3.06 15.6552C3.2 16.0452 3.63 16.2552 4.02 16.1152C4.41 15.9752 4.62 15.5452 4.48 15.1552C4.16 14.2652 4 13.3052 4 12.3252C4 7.6352 7.81 3.8252 12.5 3.8252C17.19 3.8252 21 7.6352 21 12.3252C21 17.0152 17.19 20.8252 12.5 20.8252C11.52 20.8252 10.56 20.6652 9.67 20.3452C9.28 20.2052 8.85 20.4152 8.71 20.8052C8.57 21.1952 8.78 21.6252 9.17 21.7652C10.22 22.1352 11.35 22.3252 12.5 22.3252Z" fill="#272829"/>
</svg>
