<svg width="30" height="31" viewBox="0 0 30 31" fill="none" xmlns="http://www.w3.org/2000/svg">
<rect y="0.541992" width="30" height="30" rx="7.77118" fill="#3B4EFC" fill-opacity="0.12"/>
<g clip-path="url(#clip0_928_24184)">
<g filter="url(#filter0_d_928_24184)">
<path d="M14.1902 22.8277C14.1902 23.2748 14.5526 23.6372 14.9997 23.6372C15.4468 23.6372 15.8092 23.2748 15.8092 22.8277V22.0182C15.8092 21.5712 15.4468 21.2087 14.9997 21.2087C14.5526 21.2087 14.1902 21.5712 14.1902 22.0182V22.8277ZM10.8012 9.97567C10.4849 9.65943 10.485 9.14669 10.8014 8.83056C11.1176 8.51455 11.6301 8.5147 11.9462 8.8309L12.5188 9.40376C12.8348 9.7199 12.8347 10.2323 12.5187 10.5484C12.2025 10.8645 11.69 10.8645 11.3739 10.5484L10.8012 9.97567ZM18.0539 8.8307C18.37 8.51462 18.8825 8.51462 19.1986 8.8307C19.5146 9.14678 19.5146 9.65925 19.1986 9.97533L18.6254 10.5485C18.3094 10.8645 17.7969 10.8645 17.4808 10.5485C17.1647 10.2324 17.1647 9.7199 17.4808 9.40382L18.0539 8.8307ZM14.1902 8.25676C14.1902 7.80969 14.5526 7.44727 14.9997 7.44727C15.4468 7.44727 15.8092 7.80969 15.8092 8.25676V9.06626C15.8092 9.51334 15.4468 9.87576 14.9997 9.87576C14.5526 9.87576 14.1902 9.51334 14.1902 9.06626V8.25676ZM19.1986 21.1092C19.5146 21.4252 19.5146 21.9377 19.1986 22.2538C18.8825 22.5699 18.37 22.5699 18.0539 22.2538L17.4808 21.6807C17.1647 21.3646 17.1647 20.8521 17.4808 20.536C17.7969 20.22 18.3094 20.22 18.6254 20.536L19.1986 21.1092ZM11.374 22.8253C11.3735 22.8257 11.3728 22.8257 11.3723 22.8253L10.8009 22.2539C10.4848 21.9377 10.4848 21.4252 10.8009 21.1091L11.3736 20.5364C11.6899 20.2201 12.2026 20.2202 12.5187 20.5366C12.8347 20.8528 12.8346 21.3654 12.5184 21.6814L11.374 22.8253Z" fill="url(#paint0_linear_928_24184)"/>
<path fill-rule="evenodd" clip-rule="evenodd" d="M6.9043 13.9237C6.9043 13.4943 7.07487 13.0825 7.37849 12.7789C7.68211 12.4753 8.09391 12.3047 8.52329 12.3047H21.4753C21.9046 12.3047 22.3164 12.4753 22.6201 12.7789C22.9237 13.0825 23.0943 13.4943 23.0943 13.9237V17.1617C23.0943 17.5911 22.9237 18.0029 22.6201 18.3065C22.3164 18.6101 21.9046 18.7807 21.4753 18.7807H8.52329C8.09391 18.7807 7.68211 18.6101 7.37849 18.3065C7.07487 18.0029 6.9043 17.5911 6.9043 17.1617V13.9237ZM14.9993 17.1617C14.5522 17.1617 14.1898 16.7993 14.1898 16.3522V14.7332C14.1898 14.2861 14.5522 13.9237 14.9993 13.9237C15.4464 13.9237 15.8088 14.2861 15.8088 14.7332V16.3522C15.8088 16.7993 15.4464 17.1617 14.9993 17.1617Z" fill="url(#paint1_linear_928_24184)"/>
</g>
</g>
<defs>
<filter id="filter0_d_928_24184" x="-0.866885" y="3.56167" width="31.7328" height="31.7328" filterUnits="userSpaceOnUse" color-interpolation-filters="sRGB">
<feFlood flood-opacity="0" result="BackgroundImageFix"/>
<feColorMatrix in="SourceAlpha" type="matrix" values="0 0 0 0 0 0 0 0 0 0 0 0 0 0 0 0 0 0 127 0" result="hardAlpha"/>
<feOffset dy="3.88559"/>
<feGaussianBlur stdDeviation="3.88559"/>
<feComposite in2="hardAlpha" operator="out"/>
<feColorMatrix type="matrix" values="0 0 0 0 0 0 0 0 0 0.670588 0 0 0 0 0.839216 0 0 0 0.16 0"/>
<feBlend mode="normal" in2="BackgroundImageFix" result="effect1_dropShadow_928_24184"/>
<feBlend mode="normal" in="SourceGraphic" in2="effect1_dropShadow_928_24184" result="shape"/>
</filter>
<linearGradient id="paint0_linear_928_24184" x1="19.5731" y1="15.5801" x2="8.90577" y2="15.5899" gradientUnits="userSpaceOnUse">
<stop stop-color="#2FA5F6"/>
<stop offset="1" stop-color="#4318FF"/>
</linearGradient>
<linearGradient id="paint1_linear_928_24184" x1="22.7587" y1="15.5578" x2="4.66033" y2="15.6282" gradientUnits="userSpaceOnUse">
<stop stop-color="#2FA5F6"/>
<stop offset="1" stop-color="#4318FF"/>
</linearGradient>
<clipPath id="clip0_928_24184">
<rect width="19.428" height="19.428" fill="white" transform="translate(5.28613 5.82812)"/>
</clipPath>
</defs>
</svg>
