<svg width="24" height="25" viewBox="0 0 24 25" fill="none" xmlns="http://www.w3.org/2000/svg">
<path opacity="0.4" d="M11.1718 22.1173L3.00221 18.4039C2.22062 18.0486 2.22062 16.9384 3.00221 16.5831L11.1718 12.8697C11.6976 12.6307 12.3012 12.6307 12.827 12.8697L20.9966 16.5831C21.7782 16.9384 21.7782 18.0486 20.9966 18.4039L12.827 22.1173C12.3012 22.3563 11.6976 22.3563 11.1718 22.1173Z" fill="white"/>
<path d="M11.1718 17.1173L3.00221 13.4039C2.22062 13.0486 2.22062 11.9384 3.00221 11.5831L11.1718 7.8697C11.6976 7.63067 12.3012 7.63067 12.827 7.8697L20.9966 11.5831C21.7782 11.9384 21.7782 13.0486 20.9966 13.4039L12.827 17.1173C12.3012 17.3563 11.6976 17.3563 11.1718 17.1173Z" fill="white"/>
<path opacity="0.4" d="M11.1718 12.1173L3.00221 8.40388C2.22062 8.04861 2.22062 6.93842 3.00221 6.58314L11.1718 2.8697C11.6976 2.63067 12.3012 2.63067 12.827 2.8697L20.9966 6.58315C21.7782 6.93842 21.7782 8.04861 20.9966 8.40388L12.827 12.1173C12.3012 12.3563 11.6976 12.3563 11.1718 12.1173Z" fill="white"/>
</svg>
