<svg width="24" height="25" viewBox="0 0 24 25" fill="none" xmlns="http://www.w3.org/2000/svg">
<path opacity="0.4" d="M11.1718 22.1222L3.00221 18.4088C2.22062 18.0535 2.22062 16.9433 3.00221 16.588L11.1718 12.8746C11.6976 12.6356 12.3012 12.6356 12.827 12.8746L20.9966 16.588C21.7782 16.9433 21.7782 18.0535 20.9966 18.4088L12.827 22.1222C12.3012 22.3612 11.6976 22.3612 11.1718 22.1222Z" fill="#272829"/>
<path d="M11.1718 17.1222L3.00221 13.4088C2.22062 13.0535 2.22062 11.9433 3.00221 11.588L11.1718 7.87458C11.6976 7.63556 12.3012 7.63556 12.827 7.87458L20.9966 11.588C21.7782 11.9433 21.7782 13.0535 20.9966 13.4088L12.827 17.1222C12.3012 17.3612 11.6976 17.3612 11.1718 17.1222Z" fill="#272829"/>
<path opacity="0.4" d="M11.1718 12.1222L3.00221 8.40876C2.22062 8.05349 2.22062 6.9433 3.00221 6.58803L11.1718 2.87458C11.6976 2.63556 12.3012 2.63556 12.827 2.87458L20.9966 6.58803C21.7782 6.9433 21.7782 8.05349 20.9966 8.40876L12.827 12.1222C12.3012 12.3612 11.6976 12.3612 11.1718 12.1222Z" fill="#272829"/>
</svg>
