<svg width="21" height="20" viewBox="0 0 21 20" fill="none" xmlns="http://www.w3.org/2000/svg">
<path fill-rule="evenodd" clip-rule="evenodd" d="M4.20605 4.16667H7.92689V15.8333H4.20605L4.65272 17.5H7.92689C8.36892 17.5 8.79284 17.3244 9.1054 17.0118C9.41796 16.6993 9.59355 16.2754 9.59355 15.8333V4.16667C9.59355 3.72464 9.41796 3.30072 9.1054 2.98816C8.79284 2.67559 8.36892 2.5 7.92689 2.5H4.65272L4.20605 4.16667ZM12.9269 2.5H16.2236L16.6702 4.16667H12.9269V15.8333H16.6477L16.2011 17.5H12.9269C12.4849 17.5 12.0609 17.3244 11.7484 17.0118C11.4358 16.6993 11.2602 16.2754 11.2602 15.8333V4.16667C11.2602 3.72464 11.4358 3.30072 11.7484 2.98816C12.0609 2.67559 12.4849 2.5 12.9269 2.5Z" fill="#272829"/>
</svg>
