<svg width="19" height="20" viewBox="0 0 19 20" fill="none" xmlns="http://www.w3.org/2000/svg">
<path d="M8.5498 0.0419922H10.4498V19.042H8.5498V0.0419922Z" fill="#272829"/>
<path fill-rule="evenodd" clip-rule="evenodd" d="M6.65 5.74219H1.9C1.39609 5.74219 0.912816 5.94237 0.556497 6.29868C0.200178 6.655 0 7.13828 0 7.64219V11.4422C0 11.9461 0.200178 12.4294 0.556497 12.7857C0.912816 13.142 1.39609 13.3422 1.9 13.3422H6.65V11.4422H1.9V7.64219H6.65V5.74219ZM8.55 7.64219V13.3422H10.45V5.74219H8.55V7.64219ZM12.35 5.74219V7.64219H17.1V11.4422H12.35V13.3422H17.1C17.6039 13.3422 18.0872 13.142 18.4435 12.7857C18.7998 12.4294 19 11.9461 19 11.4422V7.64219C19 7.13828 18.7998 6.655 18.4435 6.29868C18.0872 5.94237 17.6039 5.74219 17.1 5.74219H12.35Z" fill="#272829"/>
</svg>
