<svg width="16" height="17" viewBox="0 0 16 17" fill="none" xmlns="http://www.w3.org/2000/svg">
<path fill-rule="evenodd" clip-rule="evenodd" d="M13.2951 0.541992H3.02229C2.34117 0.541992 1.68794 0.812569 1.20631 1.2942C0.724678 1.77583 0.454102 2.42906 0.454102 3.11019V8.24657C0.454102 8.9277 0.724678 9.58093 1.20631 10.0626C1.68794 10.5442 2.34117 10.8148 3.02229 10.8148H13.2951C13.9762 10.8148 14.6294 10.5442 15.1111 10.0626C15.5927 9.58093 15.8633 8.9277 15.8633 8.24657V3.11019C15.8633 2.42906 15.5927 1.77583 15.1111 1.2942C14.6294 0.812569 13.9762 0.541992 13.2951 0.541992ZM3.02229 2.25412H13.2951C13.5221 2.25412 13.7399 2.34431 13.9004 2.50486C14.0609 2.6654 14.1511 2.88314 14.1511 3.11019V8.24657C14.1511 8.47362 14.0609 8.69136 13.9004 8.8519C13.7399 9.01244 13.5221 9.10264 13.2951 9.10264H3.02229C2.79525 9.10264 2.57751 9.01244 2.41697 8.8519C2.25642 8.69136 2.16623 8.47362 2.16623 8.24657V3.11019C2.16623 2.88314 2.25642 2.6654 2.41697 2.50486C2.57751 2.34431 2.79525 2.25412 3.02229 2.25412Z" fill="#272829"/>
<path d="M10.6545 12.1591L8.15988 14.6519L5.66531 12.1591L4.45312 13.3687L7.25074 16.1663C7.49155 16.407 7.8181 16.5423 8.1586 16.5423C8.4991 16.5423 8.82565 16.407 9.06646 16.1663L11.8641 13.3687L10.6536 12.1582L10.6545 12.1591Z" fill="#272829"/>
</svg>
