<svg width="26" height="25" viewBox="0 0 26 25" fill="none" xmlns="http://www.w3.org/2000/svg">
<path d="M4.98579 6.19629L5.01694 19.1962C5.02091 20.8531 6.36727 22.193 8.02412 22.1891L18.0241 22.1651C19.6809 22.1611 21.0209 20.8148 21.0169 19.1579L20.9929 9.15795C20.989 7.5011 19.6426 6.16117 17.9858 6.16514L4.98579 6.19629ZM4.98579 6.19629L4.9834 5.19629" stroke="#272829" stroke-width="1.5"/>
<path d="M18.9863 6.16276L18.9881 6.91276L19.7381 6.91096L19.7363 6.16096L18.9863 6.16276ZM16.6947 2.49436L16.5869 1.75215L16.6947 2.49436ZM5.90088 4.06273L5.79303 3.32053L5.79303 3.32053L5.90088 4.06273ZM6.05925 6.94373L18.9881 6.91276L18.9846 5.41276L6.05566 5.44374L6.05925 6.94373ZM19.7363 6.16096L19.7323 4.46699L18.2323 4.47058L18.2364 6.16456L19.7363 6.16096ZM16.5869 1.75215L5.79303 3.32053L6.00872 4.80494L16.8026 3.23657L16.5869 1.75215ZM5.79303 3.32053C4.89619 3.45084 4.23165 4.22078 4.23383 5.12703L5.73382 5.12344C5.73344 4.96366 5.8506 4.82791 6.00872 4.80494L5.79303 3.32053ZM19.7323 4.46699C19.7283 2.79348 18.243 1.51152 16.5869 1.75215L16.8026 3.23657C17.5553 3.12718 18.2305 3.7099 18.2323 4.47058L19.7323 4.46699ZM6.05566 5.44374C5.87834 5.44416 5.73425 5.30076 5.73382 5.12344L4.23383 5.12703C4.23624 6.13278 5.05351 6.94614 6.05925 6.94373L6.05566 5.44374Z" fill="#272829"/>
<path d="M9 12.187L17 12.1678" stroke="#272829" stroke-width="1.5" stroke-linecap="round"/>
<path d="M9.00879 15.687L14.5088 15.6738" stroke="#272829" stroke-width="1.5" stroke-linecap="round"/>
</svg>
