<svg width="20" height="20" viewBox="0 0 20 20" fill="none" xmlns="http://www.w3.org/2000/svg">
<path fill-rule="evenodd" clip-rule="evenodd" d="M16.9322 3.293C16.5417 2.90242 15.9086 2.90232 15.518 3.29279C15.1274 3.68325 15.1273 4.31642 15.5178 4.707C16.8926 6.0822 17.6649 7.94713 17.6649 9.89167C17.6649 11.8362 16.8926 13.7011 15.5178 15.0763C15.1273 15.4669 15.1274 16.1001 15.518 16.4905C15.9086 16.881 16.5417 16.8809 16.9322 16.4903C18.6819 14.7401 19.6649 12.3665 19.6649 9.89167C19.6649 7.4168 18.6819 5.04326 16.9322 3.293ZM13.9905 6.23467C13.6001 5.84408 12.9669 5.84399 12.5763 6.23445C12.1858 6.62492 12.1857 7.25808 12.5761 7.64867C13.1698 8.2425 13.5033 9.04781 13.5033 9.8875C13.5033 10.7272 13.1698 11.5325 12.5761 12.1263C12.1857 12.5169 12.1858 13.1501 12.5763 13.5405C12.9669 13.931 13.6001 13.9309 13.9905 13.5403C14.9591 12.5714 15.5033 11.2575 15.5033 9.8875C15.5033 8.51748 14.9591 7.20356 13.9905 6.23467ZM10.5 4.05833C10.5 3.67393 10.2797 3.32355 9.93319 3.15703C9.58672 2.99051 9.17548 3.03733 8.87531 3.27746L4.98255 6.39167H2C1.44772 6.39167 1 6.83938 1 7.39167V12.3917C1 12.944 1.44772 13.3917 2 13.3917H4.98255L8.87531 16.5059C9.17548 16.746 9.58672 16.7928 9.93319 16.6263C10.2797 16.4598 10.5 16.1094 10.5 15.725V4.05833ZM5.95803 8.17254L8.5 6.13896V13.6444L5.95803 11.6108C5.78072 11.4689 5.5604 11.3917 5.33333 11.3917H3V8.39167H5.33333C5.5604 8.39167 5.78072 8.31439 5.95803 8.17254Z" fill="#272829"/>
</svg>
