<svg width="19" height="20" viewBox="0 0 19 20" fill="none" xmlns="http://www.w3.org/2000/svg">
<path fill-rule="evenodd" clip-rule="evenodd" d="M1.9 9.54199C1.9 7.52635 2.70071 5.59326 4.12599 4.16798C5.55126 2.7427 7.48435 1.94199 9.5 1.94199C11.5156 1.94199 13.4487 2.7427 14.874 4.16798C16.2993 5.59326 17.1 7.52635 17.1 9.54199C17.1 11.5576 16.2993 13.4907 14.874 14.916C13.4487 16.3413 11.5156 17.142 9.5 17.142C7.48435 17.142 5.55126 16.3413 4.12599 14.916C2.70071 13.4907 1.9 11.5576 1.9 9.54199ZM9.5 0.0419922C4.25315 0.0419922 0 4.29514 0 9.54199C0 14.7888 4.25315 19.042 9.5 19.042C14.7468 19.042 19 14.7888 19 9.54199C19 4.29514 14.7468 0.0419922 9.5 0.0419922ZM13.3 8.59199H5.7V10.492H13.3V8.59199Z" fill="#272829"/>
</svg>
