<svg width="20" height="20" viewBox="0 0 20 20" fill="none" xmlns="http://www.w3.org/2000/svg">
<path fill-rule="evenodd" clip-rule="evenodd" d="M2.3541 9.54199C2.3541 7.52635 3.15481 5.59326 4.58009 4.16798C6.00537 2.7427 7.93846 1.94199 9.9541 1.94199C11.9697 1.94199 13.9028 2.7427 15.3281 4.16798C16.7534 5.59326 17.5541 7.52635 17.5541 9.54199C17.5541 11.5576 16.7534 13.4907 15.3281 14.916C13.9028 16.3413 11.9697 17.142 9.9541 17.142C7.93846 17.142 6.00537 16.3413 4.58009 14.916C3.15481 13.4907 2.3541 11.5576 2.3541 9.54199ZM9.9541 0.0419922C4.70725 0.0419922 0.454102 4.29514 0.454102 9.54199C0.454102 14.7888 4.70725 19.042 9.9541 19.042C15.201 19.042 19.4541 14.7888 19.4541 9.54199C19.4541 4.29514 15.201 0.0419922 9.9541 0.0419922ZM9.0041 13.342V10.492H6.1541V8.59199H9.0041V5.74199H10.9041V8.59199H13.7541V10.492H10.9041V13.342H9.0041Z" fill="#272829"/>
</svg>
